<svg id="Capa_1" enable-background="new 0 0 510.606 510.606" height="512" viewBox="0 0 510.606 510.606" width="512" xmlns="http://www.w3.org/2000/svg"><g><path d="m386.419 146.058 47.719-61.159c4.186-5.367 5.178-12.343 3.241-18.639l18.809-20.899c4.743-5.271 7.151-12.075 6.778-19.157s-3.481-13.596-8.752-18.339l-.362-.327c-5.271-4.744-12.079-7.152-19.157-6.777-7.082.373-13.596 3.481-18.34 8.753l-19.808 22.011c-5.648-.4-11.341 1.431-15.58 5.524l-169.42 163.551c-2.98 2.877-3.063 7.624-.187 10.604 1.472 1.524 3.433 2.291 5.396 2.291 1.875 0 3.753-.699 5.208-2.104l128.746-124.286 36.824 33.14-12.941 16.586c-2.548 3.266-1.966 7.979 1.3 10.526 3.265 2.548 7.979 1.967 10.526-1.299zm41.086-126.511c2.063-2.294 4.897-3.646 7.979-3.809 3.096-.162 6.041.886 8.333 2.948l.362.327c2.294 2.063 3.646 4.896 3.808 7.978s-.885 6.041-2.949 8.335l-16.734 18.595-14.751-13.275-2.783-2.504zm-65.975 57.113 29.854-28.82c2.093-2.022 5.681-1.854 8.162.383l21.532 19.377c2.479 2.235 3.021 5.779 1.233 8.072l-25.526 32.716z"/><path d="m365.309 160.922c-3.265-2.547-7.979-1.967-10.526 1.3l-164.622 210.994c-.605.775-1.052 1.663-1.314 2.611l-19.139 69.1-119.01-107.102 66.71-26.291c.915-.36 1.751-.898 2.459-1.582l79.1-76.359c2.98-2.876 3.063-7.624.187-10.604s-7.626-3.064-10.604-.187l-78.027 75.323-70.96 27.966c-5.924 2.336-10.193 7.469-11.421 13.731l-17.445 89.014c-2.013 10.271 1.612 21.132 9.456 28.562l-14.613 16.235c-3.855 4.285-5.813 9.815-5.509 15.572.303 5.757 2.83 11.051 7.11 14.902l.271.245c4.118 3.706 9.28 5.531 14.427 5.531.858 0 331.104-.167 331.104-.167 4.143 0 7.5-3.357 7.5-7.5s-3.357-7.5-7.5-7.5h-271.227c.564-.137 1.127-.278 1.684-.449l27.494-8.467c3.959-1.219 6.18-5.417 4.961-9.375-1.22-3.959-5.423-6.181-9.375-4.961l-27.495 8.467c-5.24 1.616-11.211.181-15.574-3.748l-6.46-5.813c-.002-.001-.003-.003-.005-.005l-21.202-19.081c-.004-.004-.009-.007-.013-.01l-4.953-4.458c-4.363-3.928-6.418-9.712-5.362-15.096l16.072-82.004 117.362 105.621-21.524 6.628c-3.959 1.22-6.18 5.417-4.961 9.375.993 3.224 3.96 5.295 7.165 5.295.731 0 1.475-.107 2.21-.334l28.352-8.731c6.099-1.879 10.755-6.665 12.454-12.801l20.358-73.502 163.705-209.819c2.548-3.265 1.966-7.978-1.3-10.526zm-348.619 322.746 14.593-16.216 10.053 9.047-14.592 16.215c-.913 1.014-2.091 1.701-3.393 2.003h-2.919c-.023 0-.045.003-.068.003-1.073-.247-2.074-.758-2.913-1.512l-.272-.246c-1.307-1.176-2.077-2.79-2.17-4.546-.092-1.756.505-3.442 1.681-4.748zm50.717 11.049h-22.286l7.365-8.184.891.802c4.069 3.662 8.925 6.162 14.03 7.382z"/><path d="m130.016 331.27c-7.137 7.931-6.491 20.19 1.439 27.329l8.359 7.523h.001c3.691 3.322 8.321 4.958 12.935 4.958 5.3 0 10.579-2.158 14.395-6.397l34.127-37.921 34.126-37.92c7.137-7.931 6.491-20.19-1.439-27.329l-8.36-7.523c-7.93-7.137-20.19-6.49-27.329 1.439zm25.979 23.379c-1.604 1.783-4.36 1.93-6.145.323l-8.359-7.522c-1.784-1.605-1.929-4.362-.324-6.146l29.111-32.347 14.828 13.344zm53.426-89.188c.777-.863 1.845-1.373 3.005-1.435 1.179-.063 2.277.335 3.14 1.111l8.359 7.522c1.784 1.605 1.93 4.362.324 6.146l-29.11 32.346-14.828-13.344z"/><path d="m503.106 494.278h-112.185c-4.143 0-7.5 3.357-7.5 7.5s3.357 7.5 7.5 7.5h112.185c4.143 0 7.5-3.357 7.5-7.5s-3.358-7.5-7.5-7.5z"/></g></svg>