<svg id="Capa_1" enable-background="new 0 0 511.262 511.262" height="512" viewBox="0 0 511.262 511.262" width="512" xmlns="http://www.w3.org/2000/svg"><g><path d="m496.698 59.229c8.03 0 14.563-6.533 14.563-14.563v-30.08c0-8.03-6.533-14.563-14.563-14.563h-30.08c-8.03 0-14.563 6.533-14.563 14.563v7.54h-166.374v-7.54c0-8.03-6.533-14.563-14.563-14.563h-30.08c-8.03 0-14.563 6.533-14.563 14.563v7.54h-167.269v-7.54c0-8.03-6.533-14.563-14.563-14.563h-30.08c-8.031 0-14.563 6.533-14.563 14.563v30.08c0 8.03 6.532 14.563 14.563 14.563h7.54v167.298h-7.54c-8.031.001-14.563 6.534-14.563 14.564v30.08c0 8.03 6.532 14.563 14.563 14.563h7.54v166.298h-7.54c-8.031 0-14.563 6.533-14.563 14.564v30.08c0 8.03 6.532 14.563 14.563 14.563h30.08c8.03 0 14.563-6.533 14.563-14.563v-6.54h33.502c4.143 0 7.5-3.358 7.5-7.5s-3.357-7.5-7.5-7.5h-33.502v-8.54c0-8.03-6.533-14.563-14.563-14.563h-7.54v-166.299h7.54c8.03 0 14.563-6.533 14.563-14.563v-30.08c0-8.03-6.533-14.563-14.563-14.563h-7.54v-167.299h6.464l51.638 166.056c1.402 4.511 5.167 7.807 9.823 8.604.714.122 1.426.182 2.132.182 3.904 0 7.602-1.824 9.99-5.031l25.361-34.037 14.024 14.025c2.93 2.929 7.678 2.929 10.607 0s2.929-7.678 0-10.606l-16.076-16.076c-2.567-2.567-6.128-3.891-9.739-3.626-3.622.264-6.943 2.084-9.111 4.996l-24.151 32.413-48.878-157.184 90.161 28.037c3.954 1.232 8.158-.98 9.389-4.935 1.229-3.956-.979-8.159-4.936-9.389l-94.595-29.415v-6.117h167.268v7.54c0 8.03 6.533 14.563 14.563 14.563h30.08c8.03 0 14.563-6.533 14.563-14.563v-7.54h166.374v7.54c0 8.03 6.533 14.563 14.563 14.563h7.54v167.298h-8.039c-8.03 0-14.563 6.533-14.563 14.563v30.08c0 8.03 6.533 14.563 14.563 14.563h8.039v166.298h-7.54c-8.03 0-14.563 6.533-14.563 14.563v8.54h-166.373v-8.54c0-8.03-6.533-14.563-14.563-14.563h-30.08c-8.03 0-14.563 6.533-14.563 14.563v8.54h-101.804c-4.143 0-7.5 3.358-7.5 7.5s3.357 7.5 7.5 7.5h101.803v6.54c0 8.03 6.533 14.563 14.563 14.563h30.08c8.03 0 14.563-6.533 14.563-14.563v-6.54h166.374v6.54c0 8.03 6.533 14.563 14.563 14.563h30.08c8.03 0 14.563-6.533 14.563-14.563v-30.08c0-8.03-6.533-14.563-14.563-14.563h-7.54v-166.297h7.041c8.03 0 14.563-6.533 14.563-14.563v-30.08c0-8.03-6.533-14.563-14.563-14.563h-7.041v-167.299zm-452.492 437.01h-29.206v-29.207h29.206zm0-225.505h-29.206v-29.206h29.206zm-29.206-255.711h29.206v29.207h-29.206zm255.681 29.206h-29.207v-29.206h29.207zm0 452.01h-29.207v-29.207h29.207zm225.581 0h-29.207v-29.207h29.207zm-.499-225.505h-29.207v-29.206h29.207zm-28.708-255.711h29.207v29.207h-29.207z"/><path d="m234.13 104.784c-.797-4.656-4.094-8.419-8.604-9.821l-40.436-12.574c-3.957-1.231-8.158.98-9.389 4.935-1.229 3.956.979 8.159 4.936 9.389l35.731 11.111-32.413 24.151c-2.911 2.169-4.732 5.491-4.995 9.112-.263 3.622 1.059 7.171 3.626 9.738l44.739 44.738-31.521 31.521-6.019-6.019c-2.93-2.929-7.678-2.929-10.607 0s-2.929 7.678 0 10.606l7.792 7.792c2.436 2.436 5.634 3.653 8.834 3.653 3.198 0 6.397-1.218 8.833-3.653l35.067-35.067c4.87-4.871 4.87-12.796 0-17.666l-44.461-44.461 34.037-25.361c3.788-2.822 5.647-7.468 4.85-12.124z"/></g></svg>